<svg width="1059" height="442" viewBox="0 0 1059 442" fill="none" xmlns="http://www.w3.org/2000/svg">
<mask id="mask0_161_1559" style="mask-type:luminance" maskUnits="userSpaceOnUse" x="0" y="0" width="1059" height="442">
<path d="M1059 0H0V441.333H1059V0Z" fill="white"/>
</mask>
<g mask="url(#mask0_161_1559)">
<path d="M894.706 186.231C898.089 187.003 899.116 175.263 892.763 176.894C886.41 178.519 890.717 185.285 894.706 186.231Z" fill="black" fill-opacity="0.67"/>
<path d="M603.614 11.6352C603.614 11.6352 601.464 14.1192 606.583 14.1192C611.806 14.1192 622.561 11.2027 631.167 11.2027C639.766 11.2027 637.21 8.71868 635.466 8.71868C633.723 8.71868 629.018 4.78261 622.155 5.12246C615.293 5.46849 615.699 8.03898 611.4 8.03898C607.093 8.03898 607.913 6.92057 598.901 7.3531C589.889 7.69295 598.901 10.9493 603.614 11.6352Z" fill="black" fill-opacity="0.67"/>
<path d="M903.415 220.667C906.281 222.298 906.798 225.122 906.281 229.577C905.771 234.032 900.955 233.606 909.147 236.429C917.347 239.259 927.076 244.141 924.616 235.231C922.156 226.321 924.106 225.122 915.397 218.183C906.695 211.33 906.178 215.785 905.262 210.045C904.338 204.391 901.879 193.856 898.495 197.878C895.526 201.481 893.169 202.766 896.552 208.846C900.032 215.013 900.445 219.042 903.415 220.667Z" fill="black" fill-opacity="0.67"/>
<path d="M987.198 272.497C980.846 266.843 970.194 262.734 965.894 263.16C961.492 263.593 957.702 269.246 955.242 267.189C952.782 265.131 945.514 255.449 941.724 258.279C937.831 261.102 942.234 264.359 937.314 264.359C932.505 264.359 931.072 269.246 930.045 262.734C929.122 256.221 925.229 252.965 924.209 257.852C923.286 262.734 922.776 265.99 920.317 262.307C917.857 258.618 916.424 261.102 916.424 257.42C916.424 253.737 906.695 249.708 902.905 253.737C900.445 256.307 899.522 256.567 898.495 262.221C897.579 267.875 895.119 276.785 900.445 274.381C905.772 271.984 906.798 273.955 909.147 271.131C911.607 268.301 914.473 266.676 918.883 268.301C923.286 269.932 921.336 269.932 929.018 269.073C936.804 268.301 940.594 268.301 946.023 271.131C951.349 273.955 962.001 272.33 962.001 275.154C962.001 277.984 950.84 280.041 962.001 282.865C973.17 285.695 975.52 292.202 979.006 288.945C982.382 285.695 987.198 281.24 990.685 284.496C994.061 287.747 1007.17 296.657 1004.71 291.775C1002.25 286.894 1002.77 282.439 1010.56 277.211C1018.33 271.984 1016.39 269.5 1013.01 269.5C1009.63 269.5 1009.63 273.183 1001.85 273.955C993.957 274.987 993.551 278.157 987.198 272.497Z" fill="black" fill-opacity="0.67"/>
<path d="M533.755 19.3466C534.272 19.4269 534.678 19.5134 535.092 19.5999C539.391 21.0582 542.464 18.9141 542.87 16.0037C547.583 10.2634 545.847 20.7122 551.07 18.9141C556.189 17.116 563.561 12.7474 569.604 10.2634C575.654 7.7794 562.232 8.80513 551.476 7.35305C540.721 5.89479 525.563 8.46528 521.264 10.9493C517.267 13.2602 527.513 17.8018 533.755 19.3466Z" fill="black" fill-opacity="0.67"/>
<path d="M884.977 234.804C882.007 237.974 876.275 244.913 872.382 247.397C868.489 249.795 861.73 246.625 862.24 252.279C862.75 257.933 863.163 260.423 863.673 264.445C864.183 268.474 865.106 270.958 872.382 270.958C879.651 270.958 883.034 273.016 885.487 272.157C887.947 271.384 887.437 267.702 890.303 262.82C893.169 257.933 898.089 259.137 896.139 255.535C894.196 251.852 894.196 252.711 894.196 249.029C894.196 245.34 896.656 247.824 895.223 241.743C893.686 235.663 888.36 231.208 884.977 234.804Z" fill="black" fill-opacity="0.67"/>
<path d="M901.568 291.089C908.431 291.775 913.661 291.089 918.366 288.945C923.079 286.807 920.93 284.237 920.523 283.211C920.11 282.093 916.63 284.323 911.917 285.009C907.205 285.695 905.875 285.695 899.832 286.121C893.79 286.461 897.675 284.323 891.226 283.977C884.77 283.638 878.321 282.525 870.942 280.381C863.57 278.237 859.78 276.439 854.557 274.987C849.335 273.529 854.151 271.045 853.737 264.878C853.331 258.705 848.515 261.275 844.725 259.138C840.832 256.993 842.162 252.279 843.905 253.737C845.649 255.195 846.055 256.993 846.055 249.368C846.055 241.83 837.863 236.776 832.744 230.263C827.514 223.756 828.437 220.154 828.851 216.897C829.257 213.641 838.373 219.814 843.085 224.436C847.798 229.151 847.798 229.151 850.458 228.038C853.021 226.926 860.807 223.324 862.55 217.583C864.286 211.843 848.722 200.282 846.565 194.881C844.415 189.487 849.542 192.744 852.201 189.141C854.764 185.545 857.837 190.599 856.094 193.083C854.351 195.567 856.5 197.026 858.244 199.596C859.987 202.08 859.987 199.596 861.73 196.34C863.466 193.083 862.136 191.971 865.209 189.827C868.282 187.689 879.858 184.773 882.931 182.289C886.004 179.805 888.154 176.894 891.943 167.897C895.836 158.901 891.537 159.241 889.793 155.99C888.05 152.734 882.931 147.334 879.858 144.077C876.888 140.827 879.444 141.593 881.601 140.481C883.751 139.369 882.008 136.885 876.888 135.427C871.666 133.968 872.582 136.885 867.876 136.112C863.163 135.427 865.719 132.516 870.846 127.462C876.068 122.407 873.402 128.574 876.888 130.718C880.368 132.856 881.188 128.914 883.751 130.032C886.307 131.144 891.537 133.289 895.422 137.571C899.315 141.853 899.315 146.907 903.208 146.567C907.101 146.221 907.101 144.763 908.844 141.513C910.588 138.257 904.132 135.34 901.059 132.856C897.986 130.372 895.016 130.372 897.579 128.148C900.135 126.003 897.986 122.747 899.315 120.177C900.652 117.693 905.358 119.064 910.071 117.266C914.784 115.468 915.197 109.295 915.197 102.875C915.197 96.3625 911.304 93.5325 909.147 91.308C906.998 89.1639 911.711 90.1958 915.604 92.7663C919.497 95.2502 925.539 108.955 926.765 114.436C928.102 119.837 927.179 119.837 932.402 124.545C937.624 129.26 935.881 128.487 934.145 133.888C932.402 139.282 928.102 140.741 921.646 142.193C915.197 143.651 917.347 144.683 913.454 150.164C909.561 155.558 915.604 155.904 919.083 157.356C922.569 158.814 924.209 153.42 928.612 150.849C932.911 148.365 937.624 146.481 944.996 146.481C952.376 146.481 942.847 138.17 942.441 133.888C942.027 129.6 941.621 126.689 939.877 123.433C938.134 120.177 941.621 120.177 946.74 118.039C951.859 115.895 951.453 111.526 948.483 111.526C945.514 111.526 942.847 113.324 935.984 112.984C929.122 112.638 930.865 107.93 929.122 106.125C927.386 104.327 925.229 100.391 924.823 97.1349C924.409 93.8785 918.366 89.5964 914.067 86.34C909.768 83.0837 907.205 80.9395 907.205 82.3978C907.205 83.8561 904.641 82.0518 898.599 81.7119C892.556 81.3721 891.226 82.3978 886.107 82.0518C880.877 81.7119 886.514 74.5133 888.663 69.4588C890.813 64.4044 896.863 67.3209 901.568 67.3209C906.281 67.3209 908.431 67.6607 915.397 69.119C922.259 70.5773 919.29 65.5228 920.619 61.5805C921.956 57.6383 924.926 59.7824 928.819 61.2345C932.712 62.6928 933.938 63.0388 933.938 59.7824C933.938 56.5261 937.417 55.8402 940.387 58.664C943.364 61.5805 935.164 67.6607 935.164 67.6607C935.164 67.6607 932.608 74.1735 937.321 76.3176C942.027 78.4556 951.556 87.8786 957.185 91.135C962.821 94.3914 958.928 85.7407 958.928 79.5678C958.928 73.4011 953.809 74.1735 949.916 68.4331C946.023 62.6928 948.587 65.1767 955.959 65.1767C963.331 65.1767 963.745 63.0388 965.488 61.2345C967.224 59.4364 968.458 59.0966 975.01 59.0966C981.466 59.0966 977.573 56.9524 974.604 54.0421C971.634 51.1256 965.584 51.8979 967.741 50.0998C969.891 48.3017 981.569 51.2121 987.095 53.0102C992.731 54.8145 991.402 53.3562 990.582 49.0741C989.762 44.7858 984.945 47.9557 971.22 43.6736C957.392 39.3915 942.337 36.821 937.624 36.821C932.911 36.821 936.295 34.337 939.774 34.337C943.26 34.337 942.337 31.8531 938.954 30.3948C935.475 28.9365 932.505 30.055 931.175 33.3113C929.838 36.5615 935.061 36.9075 925.125 36.9075C915.197 36.9075 907.921 36.9075 896.242 35.1094C884.571 33.3113 880.264 33.3113 870.329 32.9653C860.393 32.6254 861.317 29.0231 850.975 29.0231C840.626 29.0231 844.112 25.7667 839.806 21.8306C835.506 17.8884 833.357 18.9141 820.452 18.9141C807.547 18.9141 814.409 23.2024 816.965 23.9686C819.528 24.6545 826.494 26.4526 831.207 30.1415C835.913 33.7377 822.601 32.2794 816.965 32.6254C811.336 32.9653 811.846 30.1415 805.294 26.8851C798.837 23.6287 782.859 25.4268 773.847 25.087C764.835 24.741 764.318 25.087 760.942 19.6865C757.455 14.2922 750.187 17.2025 740.657 17.2025C731.135 17.2025 726.009 13.2603 721.303 10.6898C716.59 8.20579 709.211 7.77944 698.869 6.40768C688.527 4.94943 694.156 11.8082 698.049 12.148C698.049 12.148 702.348 13.6063 706.655 13.9461C710.954 14.2922 720.07 14.632 724.783 19.3466C729.496 24.0551 710.134 22.257 701.536 26.1992C692.93 30.1415 685.964 28.3372 680.025 30.4813C673.982 32.6254 682.994 36.2217 685.247 40.9363C687.397 45.6447 685.247 45.6447 681.354 46.6705C677.462 47.7889 682.684 41.616 680.948 39.8179C679.205 38.0198 672.749 28.6832 667.629 25.7667C662.407 22.8564 663.33 28.2569 664.15 32.2794C664.963 36.2217 666.3 36.2217 667.629 39.132C668.959 42.0485 661.993 39.132 658.617 36.994C655.131 34.8499 643.969 39.9044 638.746 37.6799C633.627 35.5358 640.49 36.2217 640.49 34.0775C640.49 31.9396 634.44 33.7377 632.704 30.4813C630.96 27.2249 643.459 23.2827 651.238 22.1705C659.024 21.0582 658.1 21.0582 658.1 17.8884C658.1 14.632 644.279 15.7442 632.704 20.3724C621.025 25.087 624.098 28.3372 622.355 31.507C620.619 34.7634 626.247 35.1094 628.811 36.9075C631.367 38.7056 625.841 39.3915 620.619 40.8498C615.492 42.3019 614.162 40.8498 608.12 42.6479C602.077 44.446 605.557 46.5901 600.334 48.3882C595.215 50.1863 595.621 50.1863 591.322 51.6446C587.023 53.0967 592.142 46.2441 598.184 45.4717C604.227 44.7858 602.484 41.8755 600.748 40.7633C599.004 39.651 587.842 36.821 575.75 33.9107C563.665 30.9942 544.311 35.0229 537.855 37.5069C531.406 39.9909 531.812 41.8755 530.992 45.4717C530.172 49.0741 515.42 54.4684 508.152 57.7248C500.779 60.9812 507.332 65.2633 509.481 68.1736C511.631 71.0901 516.344 69.6319 522.386 68.1736C528.429 66.7215 527.513 72.8882 528.429 75.0324C529.249 77.1703 532.735 77.5163 538.364 75.3722C544.001 73.2281 542.671 68.1736 542.671 65.2633C542.671 62.3529 541.341 60.8947 545.227 56.9524C549.12 53.0102 552.607 50.4397 555.982 48.6416C559.469 46.8435 558.952 50.0998 553.833 53.6961C548.714 57.2984 552.089 58.4107 554.653 62.6928C557.216 67.0614 562.439 62.6928 568.887 62.0069C575.344 61.321 563.259 66.7215 558.546 66.7215C553.833 66.7215 558.546 71.0036 555.576 71.0036C552.607 71.0036 552.089 72.8017 551.683 77.1703C551.269 81.5389 549.534 80.4267 546.047 81.5389C542.568 82.6573 537.448 82.9972 531.812 81.8849C526.176 80.7727 526.693 76.4844 522.8 73.5741C518.907 70.6638 518.087 75.0324 518.087 76.8305C518.087 78.6286 514.194 82.5708 512.451 82.5708C510.715 82.5708 505.588 86.9394 502.515 90.5356C499.546 94.1318 497.396 91.9939 496.473 90.5356C495.653 89.0774 498.622 86.9394 496.886 83.337C495.143 79.7408 488.281 76.8305 490.43 68.5196C492.58 60.2088 487.874 64.5774 480.908 65.2633C474.046 65.9491 471.896 68.5196 471.379 70.6638C470.973 72.8017 467.08 77.1703 462.773 81.1126C458.474 85.0548 461.444 88.3112 463.593 92.6798C465.75 97.0484 471.379 91.2215 473.122 87.6253C474.866 84.0229 477.015 82.2248 479.571 84.0229C482.135 85.8272 475.686 89.0774 474.866 93.3656C474.046 97.7342 476.602 97.3017 482.644 95.8496C488.694 94.3914 485.621 93.3656 490.43 95.1637C495.143 96.9618 486.131 98.4201 480.495 98.76C474.866 99.106 477.015 102.356 481.824 105.273C486.537 108.183 484.388 112.465 481.418 112.811C478.448 113.151 472.812 113.923 464.214 115.295C455.608 116.753 463.394 122.494 461.65 125.744C459.907 129 459.501 136.199 463.394 136.539C467.287 136.885 467.287 142.279 465.13 144.077C462.98 145.881 462.574 147.68 457.351 150.936C452.121 154.186 456.014 157.103 454.374 161.385C452.638 165.667 448.332 163.183 443.212 167.897C438.093 172.606 435.84 176.208 432.051 181.603C428.158 187.003 427.744 187.343 432.457 193.856C437.17 200.362 432.457 202.167 428.564 207.907C424.671 213.641 429.901 214.074 431.534 219.042C433.277 224.096 436.764 222.984 437.99 228.038C439.32 233.093 440.959 234.545 447.002 238.147C453.045 241.743 459.087 246.798 462.057 245.686C465.034 244.573 469.843 241.743 479.778 242.089C489.714 242.429 486.234 238.487 496.576 237.035C506.925 235.577 501.289 238.147 502.619 240.631C503.956 243.202 509.481 245.686 517.267 246.026C525.053 246.372 518.597 254.336 518.087 259.391C517.681 264.445 518.087 264.445 521.98 268.727C525.873 273.016 530.992 282.779 532.322 287.833C533.659 292.888 530.992 298.628 527.609 303.343C524.13 308.051 525.459 318.846 532.735 326.817C540.108 334.782 535.705 334.355 535.705 342.666C535.705 350.971 540.928 349.519 544.717 354.227C548.61 358.942 546.867 367.592 550.353 372.221C553.833 376.929 559.875 372.56 566.738 370.422C573.6 368.278 576.673 368.964 584.866 363.91C593.065 358.855 599.514 348.746 599.514 345.916C599.514 343.006 602.077 341.98 606.376 340.522C610.683 339.064 609.863 329.727 609.346 327.157C608.94 324.673 610.166 322.442 611.909 320.99C613.653 319.532 624.408 310.881 628.301 307.279C632.187 303.682 628.707 298.628 627.887 292.888C627.067 287.147 624.408 284.923 624.408 278.07C624.408 271.211 621.845 271.897 636.08 260.763C650.322 249.628 663.633 231.894 664.963 227.952C666.3 224.01 665.783 220.753 664.963 217.843C664.15 214.926 645.609 220.753 641.302 220.753C637.003 220.753 629.217 212.788 628.397 209.958C627.577 207.048 621.025 204.218 615.492 199.849C609.863 195.567 614.162 189.401 609.863 184.686C605.557 179.978 603.407 173.125 602.484 169.183C601.664 165.24 608.94 172.093 614.576 177.494C620.205 182.888 627.481 192.997 629.631 196.593C631.78 200.195 633.524 205.59 633.93 209.958C634.344 214.247 637.823 215.013 642.942 214.673C648.069 214.327 666.196 206.362 672.645 203.878C679.101 201.394 686.887 193.769 689.857 186.571C692.827 179.378 683.401 180.404 679.101 176.808C674.802 173.205 674.802 176.808 669.572 177.92C664.453 179.032 660.05 173.205 651.858 166.785C643.659 160.273 648.889 162.497 650.521 161.045C652.161 159.587 660.457 164.295 665.17 169.01C669.882 173.724 670.806 171.92 676.339 171.92C681.968 171.92 683.201 174.064 690.573 175.862C697.946 177.66 701.735 175.176 708.088 175.689C714.337 176.208 713.414 178.779 717.817 184.519C722.123 190.253 720.38 188.455 729.902 189.228C739.431 189.913 732.465 189.228 732.465 194.282C732.465 199.337 733.285 201.135 738.921 207.308C744.55 213.474 746.7 224.955 748.443 230.776C750.187 236.516 753.666 230.776 759.199 230.776C764.835 230.776 759.605 234.718 763.912 240.545C768.211 246.285 771.284 238.747 771.284 236.602C771.284 234.465 768.721 229.064 766.165 227.266C763.601 225.468 760.122 225.808 763.092 222.984C766.165 220.067 763.498 217.243 763.498 213.215C763.498 209.272 763.912 206.362 766.061 204.564C768.211 202.766 775.997 196.253 780.71 191.539C785.423 186.83 789.315 186.144 795.764 186.484C802.221 186.83 797.094 187.603 800.987 191.885C804.88 196.253 805.7 202.333 809.999 206.702C814.306 211.077 814.712 206.022 818.199 204.564C821.678 203.106 819.528 208.846 822.092 213.215C824.647 217.583 822.904 223.324 822.904 227.266C822.904 231.208 828.54 235.231 831.924 238.833C835.403 242.429 834.073 244.227 831.924 245.686C829.767 247.144 825.467 242.089 821.988 239.173C818.502 236.263 813.382 238.061 816.862 241.317C820.348 244.573 822.498 250.314 826.391 256.481C830.284 262.647 838.476 269.846 844.112 276.266C849.741 282.779 867.773 285.609 874.739 285.609C880.877 285.349 894.706 290.404 901.568 291.089ZM602.38 151.189C599.824 155.471 598.495 158.388 594.602 157.356C590.709 156.244 577.804 156.676 571.347 154.872C564.898 153.074 555.369 149.818 553.626 153.76C551.89 157.702 557.933 160.958 547.177 157.702C536.422 154.446 524.743 150.503 523.517 147.593C522.187 144.683 527.816 136.798 520.03 136.798C512.251 136.798 501.496 136.458 498.009 138.596C494.53 140.741 481.211 144.763 476.912 143.651C473.019 142.712 466.976 141.513 473.942 138.942C480.805 136.458 488.997 137.824 489.92 134.228C490.74 130.632 483.878 129.946 490.74 126.689C497.603 123.433 495.04 120.523 499.753 118.725C504.465 116.92 510.914 117.266 514.401 116.234C517.88 115.122 513.071 114.096 520.03 117.353C526.892 120.609 531.199 126.689 534.678 127.116C538.165 127.462 540.315 129.6 538.165 131.058C536.008 132.516 532.529 133.542 531.302 133.542C529.965 133.542 529.145 136.458 530.482 136.798C531.812 137.138 534.782 141.853 536.931 140.394C539.081 138.942 536.931 136.798 540.824 135.686C544.717 134.568 548.61 133.202 546.867 130.971C545.131 128.833 543.388 126.263 546.867 127.715C550.353 129.173 553.323 128.401 549.43 125.231C545.537 121.975 544.207 121.975 539.495 119.064C534.782 116.154 529.559 114.696 529.559 112.552C529.559 110.414 526.589 106.385 531.302 107.843C536.008 109.295 552.4 116.84 552.4 119.75C552.4 122.661 556.699 127.715 552.806 130.199C548.92 132.683 556.699 133.455 558.442 134.914C560.186 136.372 559.262 140.308 564.079 139.622C568.791 138.942 572.271 139.282 569.707 135.254C567.151 131.317 562.845 129.513 567.151 128.061C571.451 126.603 572.374 124.805 573.6 130.971C574.93 137.138 573.194 139.282 583.536 139.622C593.885 139.968 600.748 137.484 602.077 139.968C603.2 142.539 604.943 146.907 602.38 151.189ZM619.178 124.205C612.316 123.859 600.644 122.061 595.008 122.061C589.379 122.061 587.222 122.747 587.222 122.747C582.516 122.061 571.244 124.545 576.88 118.378C582.516 112.212 579.03 104.327 585.892 106.471C592.755 108.616 593.265 116.92 597.571 111.866C601.87 106.811 606.583 101.071 607.913 105.013C609.25 108.955 601.87 112.212 610.883 115.468C619.998 118.805 626.041 124.545 619.178 124.205ZM660.56 137.484C654.111 137.484 646.325 136.372 646.325 133.542V126.689C642.839 119.837 638.539 118.378 638.539 113.67C638.539 108.955 642.026 105.013 648.889 105.013C655.751 105.013 659.23 104.327 654.008 109.295C648.889 114.35 644.072 114.696 651.038 122.661C658.004 130.632 667.016 137.484 660.56 137.484Z" fill="black" fill-opacity="0.67"/>
<path d="M990.582 324.759C986.172 315.423 986.172 308.137 983.822 304.109C981.363 300.086 983.305 295.205 976.037 295.205C973.067 295.205 973.17 296.83 970.711 302.057C968.251 307.279 971.22 317.048 964.867 315.849C958.625 314.65 955.648 312.166 954.215 306.939C952.782 301.711 956.166 296.83 951.349 296.83C946.533 296.83 932.911 294 929.535 298.455C926.152 302.91 930.451 304.541 923.286 304.541C916.01 304.541 913.144 304.541 909.251 308.564C905.358 312.593 900.032 323.987 879.245 324.759C858.45 325.531 869.102 334.868 869.102 344.977C869.102 355.086 857.941 361.166 862.853 364.849C867.669 368.538 861.42 373.333 871.562 370.509C881.697 367.679 890.916 366.82 906.894 364.849C922.872 362.797 930.149 362.025 930.658 368.538C931.175 375.044 928.715 370.589 935.061 371.794C941.414 372.993 934.551 381.557 941.827 382.329C949.096 383.102 944.694 387.557 951.046 387.557C957.288 387.557 959.748 393.211 954.422 393.211C949.096 393.211 941.31 402.547 949.096 399.291C956.882 396.035 964.565 395.262 964.565 390.381C964.565 385.499 963.641 385.153 972.757 379.073C981.976 372.993 1003.28 358.429 1001.85 346.689C1000.31 334.955 994.984 334.096 990.582 324.759Z" fill="black" fill-opacity="0.67"/>
<mask id="mask1_161_1559" style="mask-type:luminance" maskUnits="userSpaceOnUse" x="1000" y="371" width="58" height="41">
<path d="M1000.38 371.732H1057.06V411.278H1000.38V371.732Z" fill="white"/>
</mask>
<g mask="url(#mask1_161_1559)">
<path d="M1054.08 373.419C1050.19 371.794 1050.19 374.618 1047.84 380.698C1045.38 386.785 1033.29 389.182 1031.34 390.467C1029.4 391.666 1025.51 395.349 1025.51 395.349C1016.29 400.236 998.36 405.118 1002.77 409.14C1007.17 413.169 1010.04 410.772 1020.69 406.317C1031.34 401.862 1034.22 396.208 1040.05 392.951C1045.89 389.695 1049.27 390.127 1053.57 386.099C1057.97 381.903 1057.97 375.044 1054.08 373.419Z" fill="black" fill-opacity="0.67"/>
</g>
<mask id="mask2_161_1559" style="mask-type:luminance" maskUnits="userSpaceOnUse" x="0" y="17" width="371" height="423">
<path d="M0.450592 17.4002H370.65V439.9H0.450592V17.4002Z" fill="white"/>
</mask>
<g mask="url(#mask2_161_1559)">
<path d="M363.115 272.416C355.329 270.612 354.923 272.756 354.103 269.16C353.283 265.558 348.061 265.558 343.348 265.558C338.635 265.558 336.891 265.218 333.006 262.307C329.113 259.391 320.913 259.051 318.357 258.365C315.794 257.679 317.028 251.513 311.901 245.772C306.679 240.032 295.923 238.92 289.061 235.663C282.198 232.407 284.348 219.814 274.412 220.84C264.477 221.952 263.657 225.208 254.541 221.186C245.529 217.244 239.486 214.673 234.67 217.583C229.965 220.5 223.922 225.894 220.849 227.352C217.872 228.811 212.65 226.24 209.68 226.667C206.71 227.006 203.231 224.096 201.074 221.612C198.924 219.128 204.967 206.449 199.338 206.449C193.702 206.449 186.433 204.305 186.433 202.506C186.433 200.708 198.105 189.914 194.625 188.115C191.146 186.317 184.276 187.43 178.233 194.282C172.191 201.135 166.562 200.795 163.592 198.224C160.623 195.74 153.657 180.917 159.286 172.606C164.922 164.295 173.934 160.359 180.797 160.699C187.659 161.045 186.839 159.241 193.702 158.901C200.564 158.561 209.274 160.359 210.914 162.497C212.65 164.641 209.17 168.237 213.469 172.606C217.776 176.894 220.332 175.09 220.849 176.894C221.255 178.692 217.362 180.49 215.723 180.49C213.987 180.49 199.744 183.747 205.381 185.885C211.01 188.029 220.945 186.231 223.102 189.141C225.252 192.058 216.24 198.138 229.145 198.478C242.05 198.824 250.656 200.282 258.028 200.622C265.4 200.968 270.519 201.308 271.339 202.766C272.159 204.218 277.382 197.365 265.297 197.365C253.212 197.365 243.793 191.625 237.233 190.513C230.785 189.401 226.478 185.804 226.072 181.516C225.658 177.148 226.478 173.978 223.922 170.382C221.359 166.785 214.903 158.128 220.945 154.532C226.995 150.936 239.08 144.077 242.05 139.369C245.019 134.654 245.019 133.628 251.985 130.032C258.848 126.43 267.04 121.721 270.933 118.465C274.826 115.209 281.275 110.154 282.612 112.725C283.941 115.209 289.984 115.981 297.253 113.837C304.632 111.699 313.645 106.298 305.859 106.298C298.073 106.298 293.367 104.5 295.517 102.016C297.666 99.5324 290.39 98.4201 288.137 98.76C285.988 99.106 285.988 95.1638 293.367 94.0515C300.739 92.9331 294.697 98.4201 300.739 97.9876C306.782 97.6478 310.675 93.7055 314.974 92.9331C319.281 92.2473 321.017 95.4171 315.388 98.6735C309.752 101.93 308.008 100.818 315.388 102.276C322.76 103.728 324.91 106.984 329.216 103.728C333.516 100.472 328.396 99.3594 327.879 95.0773C327.473 90.7952 328.699 82.8242 323.986 79.9138C319.281 76.9973 319.281 73.4011 319.281 70.5773C319.281 67.6608 320.093 61.5806 315.388 64.4044C310.675 67.3209 306.782 69.119 305.039 67.6608C303.303 66.2087 305.859 63.2922 302.069 61.1542C298.176 59.0101 297.77 55.7537 293.057 56.0997C288.344 56.4396 283.528 53.1832 280.972 57.8978C278.409 62.6063 275.749 66.5485 274.929 68.0068C274.109 69.4589 277.899 74.5133 274.516 76.9973C271.036 79.4875 261.611 83.1702 260.281 85.6542C258.951 88.1382 253.825 94.6509 252.495 90.3626C251.165 86.0806 256.794 79.5678 249.016 77.7697C241.23 75.9716 235.187 77.4299 233.954 73.4876C232.624 69.5454 229.248 65.9492 236.931 62.6928C244.709 59.4364 252.495 53.6961 259.771 52.9299C267.143 52.244 261.921 57.2985 267.963 56.8659C274.006 56.5261 267.143 53.9556 274.412 52.9299C281.792 51.8115 280.455 51.8115 278.305 49.6735C276.156 47.5294 277.485 47.1895 283.018 44.9589C288.654 42.8209 284.348 41.3627 289.881 39.5646C295.517 37.7665 296.743 35.9622 299.816 35.9622C302.786 35.9622 302.379 37.0806 300.636 40.3308C298.893 43.5871 297.666 45.7313 302.786 43.5871C308.008 41.4492 310.572 39.9909 306.679 43.2473C302.786 46.5037 300.23 46.5037 294.593 47.1895C288.957 47.8754 290.701 48.6416 293.264 51.1256C295.82 53.6096 302.276 54.0421 304.426 55.4139C306.575 56.8659 309.138 61.9204 314.361 59.3499C319.48 56.8659 315.691 56.4396 322.553 53.9556C329.416 51.4716 339.351 50.0134 338.531 46.757C337.711 43.5006 330.753 41.7025 329.933 37.7665C329.113 33.8242 339.455 31.5936 326.04 29.7955C312.721 27.9974 320.404 26.5391 313.955 26.5391C307.499 26.5391 295.413 26.5391 291.107 28.3372C286.808 30.1415 284.244 27.225 282.095 30.1415C279.945 33.0518 282.508 36.9941 280.359 36.9941C278.202 36.9941 274.316 39.9044 272.573 36.9941C270.83 34.0776 266.937 31.2537 272.159 30.1415C277.286 29.0231 278.202 29.7955 279.022 26.5391C279.842 23.2827 271.649 23.6288 276.466 22.9429C281.179 22.257 283.328 23.2827 289.777 23.2827C296.233 23.2827 310.882 25.4269 313.031 22.1705C315.181 18.9141 309.545 18.9141 303.096 18.5743C296.64 18.2283 285.375 16.4302 280.662 18.2283C275.949 20.0325 269.906 22.9429 267.757 25.7667C265.607 28.6832 265.607 25.087 261.308 25.7667C257.001 26.4526 249.629 30.4813 253.522 32.6255C257.415 34.7634 257.415 37.3339 253.108 37.3339C248.809 37.3339 247.479 40.9363 244.51 40.9363C241.533 40.9363 233.34 40.5903 237.13 38.7922C241.023 36.9941 245.33 36.9941 244.916 32.6255C244.51 28.2569 249.215 26.8851 249.215 25.4269C249.215 23.9686 238.873 28.6832 230.681 26.5391C222.482 24.4011 219.002 21.1448 210.81 21.4846C202.611 21.8307 191.863 30.8212 196.982 31.5936C202.204 32.2795 205.994 30.9077 206.917 33.0518C207.737 35.196 206.097 36.9941 209.067 38.1063C212.036 39.2185 217.673 42.0485 210.396 40.5903C203.128 39.132 206.504 36.648 195.342 36.2217C184.18 35.8757 177.214 32.9653 165.639 35.5358C153.96 38.0198 155.703 40.2504 147.917 38.0198C140.131 35.8757 123.747 30.8212 110.842 32.9653C97.9368 35.1095 81.9587 38.7057 78.0658 40.9363C74.1729 43.0743 81.9587 45.2184 75.0962 45.6448C68.2337 45.9908 51.842 45.6448 55.2252 49.241C58.7045 52.8434 63.0037 53.1832 57.7811 53.9556C52.6619 54.6415 45.696 55.0678 43.1401 58.2377C40.5768 61.4941 31.0476 63.2922 37.0901 64.7504C43.1401 66.2087 53.0682 69.4589 48.769 69.8049C44.4697 70.1447 22.4491 77.3434 13.0233 79.1415C3.49405 80.9396 -4.18104 89.5964 4.01114 87.0259C14.4564 83.8561 42.4161 76.571 47.5427 74.7729C52.6619 72.9748 54.9149 74.433 54.4052 76.917C53.9916 79.401 60.4478 75.7986 65.567 72.5484C70.6862 69.292 70.6862 62.7793 75.0962 65.0038C79.3955 67.1479 81.9587 65.0038 85.438 64.3241C88.9247 63.6382 92.3005 61.8339 95.3735 63.2057C98.3431 64.6639 106.129 66.1222 108.279 67.5743C110.428 69.0325 111.248 72.2889 109.099 72.6287C106.949 72.9748 106.535 74.7729 106.949 77.6832C107.355 80.5997 109.099 83.0837 104.799 83.8561C100.493 84.542 101.313 88.9106 103.979 88.5645C106.535 88.2247 108.279 87.1125 108.692 84.9683C109.099 82.8242 114.735 78.8016 113.915 81.712C113.095 84.6223 110.945 87.4523 110.945 89.6768C110.945 91.8209 107.976 91.4811 107.459 93.619C107.052 95.7631 107.872 95.7631 110.022 97.5612C112.172 99.3594 110.842 100.472 110.428 104.414C110.022 108.356 97.1169 119.237 95.3735 122.834C93.6302 126.43 94.5536 131.484 94.5536 135.427C94.5536 139.369 92.8102 144.423 97.5232 145.882C102.236 147.334 102.65 148.019 102.65 151.622C102.65 155.218 102.65 159.587 105.206 162.071C107.769 164.555 106.535 164.215 106.535 168.237C106.535 172.266 109.512 170.035 110.022 173.292C110.428 176.548 107.872 178.006 112.172 180.49C116.471 182.974 121.184 184.773 119.034 180.83C116.884 176.894 115.555 173.638 113.398 167.811C111.248 162.071 109.919 151.622 112.578 154.792C115.141 158.042 118.628 167.811 122.513 174.577C126.406 181.43 131.119 180.744 131.119 185.718C131.119 190.772 126.406 195.481 135.832 198.737C145.361 201.994 152.224 208.846 157.853 208.074C163.489 207.388 166.865 204.478 169.022 207.734C171.172 210.99 175.884 215.272 181.107 215.272C186.226 215.272 187.97 218.183 188.886 222.471C189.705 226.753 193.192 227.525 198.415 228.978C203.534 230.436 204.871 235.15 208.757 234.718C212.65 234.378 217.776 232.92 217.776 236.176C217.776 239.433 219.512 247.311 213.063 252.365C206.607 257.42 203.534 261.022 207.021 264.272C210.5 267.529 207.427 270.785 205.684 273.269C203.948 275.753 207.021 277.984 210.396 281.926C213.883 285.862 218.596 290.577 221.566 298.541C224.535 306.512 228.938 309.336 236.207 311.907C243.586 314.391 249.119 318.759 249.119 324.932C249.119 331.099 248.705 352.003 248.705 358.083C248.705 364.25 252.598 370.336 251.269 375.044C249.932 379.759 251.269 383.701 253.005 385.499C254.748 387.298 254.342 391.24 254.748 395.262C255.162 399.205 260.384 396.381 260.384 399.977C260.384 403.573 258.235 408.974 260.791 410.772C263.354 412.57 257.821 419.083 269.396 425.163C281.075 431.33 281.895 431.676 282.715 432.701C283.528 433.814 287.421 430.563 287.421 432.361C287.421 434.16 280.972 439.554 293.057 439.554C305.142 439.554 312.418 441.012 305.142 436.304C297.77 431.589 293.463 433.814 292.237 429.105C290.907 424.39 289.267 425.163 288.344 421.906C287.524 418.65 291.417 417.198 290.087 413.942C288.758 410.685 283.631 410.685 284.045 407.429C284.451 404.173 287.524 400.916 288.344 399.464C289.164 398.006 289.164 396.548 287.014 395.182C284.865 393.724 285.271 393.378 288.344 392.612C291.417 391.926 291.831 392.951 293.057 389.355C294.387 385.753 298.176 386.099 299.92 385.073C301.663 383.955 307.705 382.583 305.556 377.874C303.399 373.16 299.1 371.022 303.812 371.022C308.525 371.022 313.334 370.676 316.304 365.621C319.281 360.567 318.047 359.455 321.534 355.512C325.013 351.57 325.427 348.32 325.427 345.403C325.427 342.493 323.683 339.663 328.396 337.865C333.102 336.067 348.674 333.923 350.823 328.528C352.973 323.128 355.13 317.394 354.31 311.567C353.49 305.827 352.973 302.224 357.789 297.516C362.502 292.801 368.545 288.865 368.545 284.577C368.648 280.295 370.901 274.214 363.115 272.416Z" fill="black" fill-opacity="0.67"/>
</g>
<mask id="mask3_161_1559" style="mask-type:luminance" maskUnits="userSpaceOnUse" x="219" y="2" width="256" height="65">
<path d="M219.364 2.12561H474.659V66.4373H219.364V2.12561Z" fill="white"/>
</mask>
<g mask="url(#mask3_161_1559)">
<path d="M442.91 35.4492C447.615 31.1672 446.389 28.9365 452.838 26.7986C459.294 24.6544 457.551 21.7441 456.731 17.462C455.911 13.0934 456.731 14.978 459.294 13.5197C461.857 12.0615 465.75 11.0358 471.793 10.6032C477.835 10.2634 472.199 8.46527 472.199 6.32114C472.199 4.18318 467.9 4.52303 461.857 5.20891C455.815 5.89478 456.731 5.20891 452.328 3.75065C448.029 2.29857 422.625 2.29857 416.073 2.29857C409.616 2.29857 397.938 3.4108 391.895 3.75065C385.852 4.09668 386.266 3.75065 374.691 2.63842C363.012 1.52619 332.489 2.29857 321.224 3.32429C310.062 4.43653 301.862 5.46843 294.49 9.491C287.118 13.4332 282.405 11.975 274.213 12.7474C266.013 13.4332 265.193 13.4332 261.308 13.4332C257.415 13.4332 257.821 11.6351 250.958 13.7731C244.096 15.9172 246.246 17.3755 243.586 14.459C241.023 11.5486 237.544 14.459 225.459 16.9429C213.366 19.4269 229.758 22.3434 233.651 23.4557C233.651 23.4557 241.843 23.1158 246.556 21.9974C251.269 20.8852 253.418 23.4557 256.491 22.6833C259.461 21.9974 260.384 19.4269 277.589 16.1767C294.8 12.9204 306.885 15.4909 313.851 17.9749C320.714 20.4588 320.714 19.0871 326.756 15.8307C332.799 12.5743 343.141 10.0904 353.896 8.63829C364.652 7.18003 357.789 10.4364 350.927 12.5744C344.064 14.7185 338.022 14.0326 339.248 17.6288C340.585 21.2312 353.896 20.1128 357.789 20.1128C361.682 20.1128 362.088 25.1673 362.502 28.0838C362.908 30.9941 362.088 32.4524 362.908 35.2762C363.728 38.1927 365.878 37.7664 362.088 40.6767C358.203 43.5871 356.046 43.1607 356.046 48.2152C356.046 53.2697 358.609 58.664 364.652 62.2664C370.694 65.8626 374.181 66.2086 377.557 60.4683C381.043 54.7279 389.236 51.1255 393.535 49.3274C397.842 47.5293 403.884 49.3274 409.513 45.0453C415.149 40.7632 422.418 42.5613 430.618 40.3307C439.017 38.3658 438.093 39.8178 442.91 35.4492Z" fill="black" fill-opacity="0.67"/>
</g>
<path d="M451.508 43.7601C438.603 45.2184 426.518 41.616 428.668 47.3563C430.817 53.0967 431.231 61.7535 438.197 59.9493C450.075 56.8659 463.187 55.2408 460.217 50.6127C457.041 45.9043 464.413 42.3019 451.508 43.7601Z" fill="black" fill-opacity="0.67"/>
</g>
</svg>
